# xmcd
#
# Track frame offsets:
#	150
#	11860
#	25521
#	37432
#	57912
#	69615
#	84112
#	92653
#	106042
#	120924
#	132528
#	148315
#	164331
#
# Disc length: 2356 seconds
#
# Revision: 1
# Processed by: cddbd v1.5.2PL0 Copyright (c) Steve Scherf et al.
# Submitted via: audiograbber 1.83.01
#
DISCID=ad09320d
DTITLE=International Music Express - IME 01
DYEAR=1900
DGENRE=
TTITLE0=What Good For The Goose, Is Good For The Gander - Dottie West
TTITLE1=All For The Love Of A Girl - Billy Joe Burnette
TTITLE2=Back To Schooll Blues  - Cathille Harmon
TTITLE3=Because You Loved Me  - Dawn Williams
TTITLE4=Each Picture In My Billford  - Ron Murray
TTITLE5=Elvis, Buddy, Rick, You Were Like A Movie  - Troy Shondell
TTITLE6=Honky Tonk Girl  - Billy Parker And Cal Smith
TTITLE7=If You Ever Think Of Denver, Think Of Me  - Bill Snowden
TTITLE8=Mary Ann  - Ray Peterson
TTITLE9=Nancy Lee  - Raymond L Boudreaux
TTITLE10=Never Found My Wings To Fly  - Lea Dawn
TTITLE11=Rebel Without A Cause  - Sterling Sublett
TTITLE12=Someone Had To Teach You  - Mike Bella
EXTD=
EXTT0=
EXTT1=
EXTT2=
EXTT3=
EXTT4=
EXTT5=
EXTT6=
EXTT7=
EXTT8=
EXTT9=
EXTT10=
EXTT11=
EXTT12=
PLAYORDER=
